<?xml version="1.0" standalone="no"?>
<!DOCTYPE svg PUBLIC "-//W3C//DTD SVG 1.1//EN" "http://www.w3.org/Graphics/SVG/1.1/DTD/svg11.dtd">
<svg xmlns="http://www.w3.org/2000/svg" id="Calque_1" data-name="Calque 1" viewBox="0 0 350 100" width="350" height="100"><defs><style>.cls-1{fill:#ab8ebc;}.cls-2{fill:#662d91;}</style></defs><title>Logo_new_format</title><path class="cls-1" d="M149.41,54a2.56,2.56,0,0,0-2.9-2.14,1.86,1.86,0,0,0-.34.07l-2.43-6.55a2.48,2.48,0,0,0,1.54-2.63,2.56,2.56,0,0,0-2.9-2.14,2.63,2.63,0,0,0-1,.37L126.17,20.76a2.45,2.45,0,0,0,1-2.32,2.59,2.59,0,0,0-5.09-.13L81,10.08A2.43,2.43,0,0,0,81.08,9a2.57,2.57,0,0,0-2.9-2.15,2.48,2.48,0,0,0-1.1,4.55L57.69,42.79a2.7,2.7,0,0,0-1.39-.2,2.53,2.53,0,0,0-2.21,2.82A2.57,2.57,0,0,0,57,47.55l.38-.08L72.19,87.12a2.5,2.5,0,0,0-1.68,2.68A2.58,2.58,0,0,0,73.41,92a2.55,2.55,0,0,0,2.22-2.21l41.89,1.86a2.58,2.58,0,0,0,2.77,1.64,2.51,2.51,0,0,0,2.21-2.81,2.34,2.34,0,0,0-.38-1l23.31-33a2.61,2.61,0,0,0,1.77.39A2.51,2.51,0,0,0,149.41,54Zm-3.58-2a2.5,2.5,0,0,0-1.55,2.24l-6.27.83a2.52,2.52,0,0,0-1.42-1.57l5-8.22a2.63,2.63,0,0,0,1.5.24l.33-.06ZM119.6,88.29a2.54,2.54,0,0,0-1.95,1.34L86.35,70.21a2.4,2.4,0,0,0,.46-1.73L133,56.41a2.49,2.49,0,0,0,1,1.42L121.39,88.69A2.63,2.63,0,0,0,119.6,88.29ZM80.38,11l28,22.88a2.44,2.44,0,0,0-.67,2,2.48,2.48,0,0,0,1.17,1.77l-23.21,29a2.62,2.62,0,0,0-1.7-.43L79,11.77A2.66,2.66,0,0,0,80.38,11Zm52.6,45L86.75,68.13A2.51,2.51,0,0,0,86,66.91l23.25-29a2.58,2.58,0,0,0,1.41.2,2.54,2.54,0,0,0,1.71-1l21.1,17.22A2.45,2.45,0,0,0,133,56.06ZM141,41.19a2.46,2.46,0,0,0,.22,4l-5,8.28a2.46,2.46,0,0,0-1.05-.08,3.39,3.39,0,0,0-.57.14l-9.2-32.34a2.44,2.44,0,0,0,.44-.19Zm-19-22.53a2.3,2.3,0,0,0,0,.45,2.57,2.57,0,0,0,2.9,2.14l.11,0,9.22,32.4a2.47,2.47,0,0,0-.61.45L112.56,36.84a2.42,2.42,0,0,0,.3-1.55,2.47,2.47,0,0,0-.55-1.23l10.58-13.2-.28-.21L112.07,33.8a2.63,2.63,0,0,0-2.11-.65,2.54,2.54,0,0,0-1.27.53L80.61,10.77a3.17,3.17,0,0,0,.23-.36ZM77.39,11.55a2.6,2.6,0,0,0,1.21.25l5.06,54.53a2.54,2.54,0,0,0-1.4.85L58.73,46.53a2.4,2.4,0,0,0,.47-1.79A2.49,2.49,0,0,0,58,43ZM57.7,47.35a2.38,2.38,0,0,0,.8-.55L82.05,67.46a2.47,2.47,0,0,0-.35,1.63,2.49,2.49,0,0,0,1.19,1.79L74.23,87.24A2.65,2.65,0,0,0,72.72,87l-.19,0ZM75.64,89.4a1.23,1.23,0,0,0,0-.27,2.48,2.48,0,0,0-1.08-1.71L83.21,71a2.7,2.7,0,0,0,1.39.2,2.57,2.57,0,0,0,1.52-.76L117.51,90a2.41,2.41,0,0,0-.12,1.14l0,.15Zm46.26-.27a2.18,2.18,0,0,0-.22-.21L134.32,58a2.69,2.69,0,0,0,1.57.28,2.53,2.53,0,0,0,2.21-2.82v0l6.2-.82a.08.08,0,0,1,0,0,2.44,2.44,0,0,0,.84,1.53Z"/><path class="cls-2" d="M88,32.27H92l8.34,33.55,7.2-33.55h5.94l-10,42.78H97.67L90.16,45.16,82.32,75.05H76.49L66.55,32.27h5.94l7.2,33.55Z"/><path class="cls-2" d="M128.18,75.05h-5.71V32.27h5.71Z"/><path class="cls-1" d="M137.77,32.27h28.74V38H137.77Zm11.51,3.5H155V75.05h-5.71Z"/><path class="cls-1" d="M175,32.27h5.71V75.05H175Zm2.77,0h23.38V38H177.75Zm0,18.69h20.3v5.71h-20.3Zm0,18.39h23.38v5.7H177.75Z"/><path class="cls-1" d="M221.23,75.5l-3.21-2a13,13,0,0,1-5-5.59,18.82,18.82,0,0,1-1.77-8.38V47.81a18.9,18.9,0,0,1,1.77-8.39,13.16,13.16,0,0,1,5-5.6,13.8,13.8,0,0,1,7.44-2,13.43,13.43,0,0,1,6.44,1.58,13.74,13.74,0,0,1,4.91,4.45,17.24,17.24,0,0,1,2.68,6.68h-5.86A9.65,9.65,0,0,0,231.86,41a8.91,8.91,0,0,0-2.93-2.43,7.89,7.89,0,0,0-7.84.41,8.29,8.29,0,0,0-2.92,3.55,12.74,12.74,0,0,0-1,5.31V59.55a12.74,12.74,0,0,0,1,5.29,8.06,8.06,0,0,0,2.92,3.55,7.7,7.7,0,0,0,4.37,1.25,8,8,0,0,0,3.48-.79,8.4,8.4,0,0,0,2.92-2.36,9.43,9.43,0,0,0,1.77-3.7h5.86a17,17,0,0,1-2.69,6.67,13.9,13.9,0,0,1-4.93,4.46,13.37,13.37,0,0,1-6.41,1.58Z"/><path class="cls-1" d="M249.92,32.27h5.71V75.05h-5.71Zm3.55,18.86h22.61v5.71H253.47Zm19.58-18.86h5.71V75.05h-5.71Z"/></svg>